<svg width="183" height="26" viewBox="0 0 183 26" fill="none" xmlns="http://www.w3.org/2000/svg">
<path d="M10.324 0.527985C11.16 0.527985 12.0214 0.629318 12.908 0.831985C13.7947 1.00932 14.6054 1.31332 15.34 1.74398C16.0747 2.14932 16.67 2.70665 17.126 3.41599C17.582 4.12532 17.81 5.01199 17.81 6.07598C17.81 7.01332 17.582 7.86199 17.126 8.62199C16.6954 9.38199 16.176 10.0027 15.568 10.484C14.9854 10.9653 14.4787 11.2947 14.048 11.472C13.972 11.5227 13.972 11.5733 14.048 11.624C14.504 11.6493 15.036 11.8013 15.644 12.08C16.252 12.3587 16.8474 12.764 17.43 13.296C18.038 13.8027 18.532 14.4233 18.912 15.158C19.292 15.8927 19.482 16.716 19.482 17.628C19.482 18.692 19.292 19.68 18.912 20.592C18.5574 21.504 17.924 22.34 17.012 23.1C16.1254 23.8347 14.96 24.354 13.516 24.658C12.072 24.9367 10.6407 25.0887 9.22202 25.114H0.67202C0.570686 25.0127 0.52002 24.8353 0.52002 24.582C0.545353 24.3287 0.59602 24.1513 0.67202 24.05C0.82402 24.05 1.10269 24.0373 1.50802 24.012C1.91335 23.9613 2.29335 23.8853 2.64802 23.784C3.02802 23.6827 3.23069 23.5687 3.25602 23.442C3.35735 23.138 3.40802 22.7453 3.40802 22.264C3.43335 21.7827 3.44602 21.2633 3.44602 20.706V4.85999C3.44602 4.30265 3.43335 3.78332 3.40802 3.30198C3.40802 2.79532 3.35735 2.38999 3.25602 2.08599C3.23069 1.93399 3.02802 1.81998 2.64802 1.74398C2.29335 1.66799 1.91335 1.61732 1.50802 1.59198C1.10269 1.54132 0.82402 1.51599 0.67202 1.51599C0.59602 1.41465 0.545353 1.23732 0.52002 0.983986C0.52002 0.730653 0.570686 0.55332 0.67202 0.451986C1.43202 0.477319 2.17935 0.515319 2.91402 0.565987C3.64869 0.59132 4.37069 0.603987 5.08002 0.603987C5.81469 0.603987 6.60002 0.59132 7.43602 0.565987C8.27202 0.540652 9.23469 0.527985 10.324 0.527985ZM6.67602 12.688V20.744C6.67602 20.9213 6.67602 21.2 6.67602 21.58C6.70135 21.9347 6.73935 22.2767 6.79002 22.606C6.84069 22.9353 6.90402 23.1507 6.98002 23.252C7.25869 23.556 7.63869 23.746 8.12002 23.822C8.62669 23.898 9.22202 23.936 9.90602 23.936C10.8434 23.936 11.7554 23.7967 12.642 23.518C13.554 23.2393 14.314 22.7073 14.922 21.922C15.53 21.1113 15.834 19.9587 15.834 18.464C15.834 17.5267 15.6567 16.6273 15.302 15.766C14.9474 14.8793 14.2634 14.1447 13.25 13.562C12.262 12.9793 10.818 12.688 8.91802 12.688H6.67602ZM6.67602 11.282H9.75402C10.8687 11.282 11.768 11.0667 12.452 10.636C13.136 10.2053 13.63 9.66065 13.934 9.00199C14.2634 8.31799 14.428 7.62132 14.428 6.91199C14.428 5.26532 13.896 3.99865 12.832 3.11199C11.7934 2.19999 10.4127 1.74398 8.69002 1.74398C8.46202 1.74398 8.10735 1.75665 7.62602 1.78199C7.17002 1.80732 6.90402 1.90865 6.82802 2.08599C6.75202 2.28865 6.70135 2.60532 6.67602 3.03599C6.67602 3.46665 6.67602 3.92265 6.67602 4.40398C6.67602 4.50532 6.67602 4.59398 6.67602 4.66998C6.67602 4.74599 6.67602 4.82199 6.67602 4.89799V11.282Z" fill="url(#paint0_linear_2_276)"/>
<path d="M34.9492 0.261986C36.5959 0.261986 38.1412 0.565985 39.5852 1.17398C41.0545 1.78198 42.3465 2.65599 43.4612 3.79599C44.5759 4.91065 45.4499 6.24065 46.0832 7.78599C46.7419 9.30599 47.0712 10.9907 47.0712 12.84C47.0712 14.588 46.7419 16.222 46.0832 17.742C45.4499 19.2367 44.5759 20.5667 43.4612 21.732C42.3465 22.872 41.0545 23.7713 39.5852 24.43C38.1412 25.0633 36.5959 25.38 34.9492 25.38C33.3279 25.38 31.7825 25.076 30.3132 24.468C28.8692 23.86 27.5899 22.9987 26.4752 21.884C25.3859 20.744 24.5245 19.414 23.8912 17.894C23.2579 16.3487 22.9412 14.664 22.9412 12.84C22.9412 11.092 23.2579 9.45799 23.8912 7.93799C24.5245 6.41799 25.3859 5.08799 26.4752 3.94799C27.5899 2.78265 28.8692 1.88332 30.3132 1.24999C31.7825 0.591319 33.3279 0.261986 34.9492 0.261986ZM34.4172 1.51599C33.0239 1.51599 31.8332 1.83265 30.8452 2.46598C29.8572 3.07399 29.0465 3.88465 28.4132 4.89799C27.8052 5.91132 27.3492 7.03865 27.0452 8.27999C26.7665 9.52132 26.6272 10.7627 26.6272 12.004C26.6272 13.448 26.8172 14.892 27.1972 16.336C27.6025 17.7547 28.1852 19.0593 28.9452 20.25C29.7052 21.4153 30.6299 22.3527 31.7192 23.062C32.8339 23.7713 34.1132 24.126 35.5572 24.126C36.9505 24.126 38.1412 23.822 39.1292 23.214C40.1172 22.5807 40.9279 21.7447 41.5612 20.706C42.1945 19.6673 42.6505 18.5273 42.9292 17.286C43.2332 16.0193 43.3852 14.7653 43.3852 13.524C43.3852 12.08 43.1825 10.6487 42.7772 9.22999C42.3972 7.81132 41.8145 6.51932 41.0292 5.35399C40.2692 4.18865 39.3319 3.26398 38.2172 2.57998C37.1279 1.87065 35.8612 1.51599 34.4172 1.51599Z" fill="url(#paint1_linear_2_276)"/>
<path d="M68.711 18.502C68.711 18.426 68.711 18.35 68.711 18.274C68.711 18.198 68.711 18.122 68.711 18.046C68.711 17.5647 68.6984 17.134 68.673 16.754C68.673 16.3487 68.635 16.0193 68.559 15.766C68.5337 15.614 68.331 15.5 67.951 15.424C67.5964 15.3227 67.2164 15.2593 66.811 15.234C66.431 15.1833 66.165 15.158 66.013 15.158C65.937 15.0567 65.8864 14.8793 65.861 14.626C65.861 14.3727 65.9117 14.1953 66.013 14.094C66.773 14.1193 67.5077 14.1573 68.217 14.208C68.9264 14.2587 69.6357 14.284 70.345 14.284C71.0797 14.284 71.7637 14.2587 72.397 14.208C73.0557 14.1573 73.765 14.1193 74.525 14.094C74.6264 14.1953 74.6644 14.3727 74.639 14.626C74.639 14.8793 74.601 15.0567 74.525 15.158C74.373 15.158 74.107 15.1833 73.727 15.234C73.347 15.2593 72.9924 15.3227 72.663 15.424C72.3337 15.5 72.1437 15.614 72.093 15.766C71.9917 16.07 71.9284 16.4627 71.903 16.944C71.903 17.4253 71.903 17.9447 71.903 18.502V21.124C71.903 21.5293 71.9664 21.8333 72.093 22.036C72.2197 22.2387 72.283 22.4413 72.283 22.644C72.283 22.7453 72.245 22.834 72.169 22.91C72.093 22.986 71.8904 23.1127 71.561 23.29C71.029 23.5687 70.4084 23.86 69.699 24.164C69.015 24.468 68.141 24.7213 67.077 24.924C66.0384 25.1267 64.6957 25.228 63.049 25.228C61.225 25.228 59.553 24.9113 58.033 24.278C56.513 23.6193 55.1957 22.7327 54.081 21.618C52.9917 20.478 52.143 19.186 51.535 17.742C50.9524 16.2727 50.661 14.7147 50.661 13.068C50.661 11.32 50.965 9.68599 51.573 8.16599C52.2064 6.62065 53.0804 5.25265 54.195 4.06199C55.3097 2.87132 56.627 1.94665 58.147 1.28799C59.6924 0.603987 61.377 0.261986 63.201 0.261986C64.417 0.261986 65.6837 0.312653 67.001 0.413986C68.3437 0.51532 69.699 0.717987 71.067 1.02199C71.067 1.02199 71.105 1.28799 71.181 1.81999C71.2824 2.32665 71.3837 2.93465 71.485 3.64399C71.5864 4.32799 71.675 4.96132 71.751 5.54399C71.8524 6.10132 71.903 6.43065 71.903 6.53199C71.9284 6.63332 71.8524 6.73465 71.675 6.83599C71.4977 6.93732 71.3077 6.98799 71.105 6.98799C70.9277 6.98799 70.7757 6.94999 70.649 6.87399C70.5984 6.59532 70.4717 6.16465 70.269 5.58199C70.0917 4.99932 69.7497 4.39132 69.243 3.75799C68.7617 3.12465 68.0524 2.59265 67.115 2.16199C66.1777 1.70599 64.9364 1.47799 63.391 1.47799C62.023 1.47799 60.7817 1.79465 59.667 2.42798C58.5524 3.03598 57.5897 3.87199 56.779 4.93599C55.9937 5.97465 55.3857 7.13999 54.955 8.43199C54.5497 9.69865 54.347 10.978 54.347 12.27C54.347 13.714 54.537 15.1327 54.917 16.526C55.3224 17.9193 55.9177 19.186 56.703 20.326C57.5137 21.4407 58.5144 22.34 59.705 23.024C60.921 23.6827 62.3397 24.012 63.961 24.012C64.9237 24.012 65.7724 23.8853 66.507 23.632C67.267 23.3533 67.9257 23.0747 68.483 22.796C68.6097 22.7453 68.673 22.682 68.673 22.606C68.6984 22.5047 68.711 22.3907 68.711 22.264V18.502Z" fill="url(#paint2_linear_2_276)"/>
<path d="M89.4258 0.261986C91.0724 0.261986 92.6178 0.565985 94.0618 1.17398C95.5311 1.78198 96.8231 2.65599 97.9378 3.79599C99.0524 4.91065 99.9264 6.24065 100.56 7.78599C101.218 9.30599 101.548 10.9907 101.548 12.84C101.548 14.588 101.218 16.222 100.56 17.742C99.9264 19.2367 99.0524 20.5667 97.9378 21.732C96.8231 22.872 95.5311 23.7713 94.0618 24.43C92.6178 25.0633 91.0724 25.38 89.4258 25.38C87.8044 25.38 86.2591 25.076 84.7898 24.468C83.3458 23.86 82.0664 22.9987 80.9518 21.884C79.8624 20.744 79.0011 19.414 78.3678 17.894C77.7344 16.3487 77.4178 14.664 77.4178 12.84C77.4178 11.092 77.7344 9.45799 78.3678 7.93799C79.0011 6.41799 79.8624 5.08799 80.9518 3.94799C82.0664 2.78265 83.3458 1.88332 84.7898 1.24999C86.2591 0.591319 87.8044 0.261986 89.4258 0.261986ZM88.8938 1.51599C87.5004 1.51599 86.3098 1.83265 85.3218 2.46598C84.3338 3.07399 83.5231 3.88465 82.8898 4.89799C82.2818 5.91132 81.8258 7.03865 81.5218 8.27999C81.2431 9.52132 81.1038 10.7627 81.1038 12.004C81.1038 13.448 81.2938 14.892 81.6738 16.336C82.0791 17.7547 82.6618 19.0593 83.4218 20.25C84.1818 21.4153 85.1064 22.3527 86.1958 23.062C87.3104 23.7713 88.5898 24.126 90.0338 24.126C91.4271 24.126 92.6178 23.822 93.6058 23.214C94.5938 22.5807 95.4044 21.7447 96.0378 20.706C96.6711 19.6673 97.1271 18.5273 97.4058 17.286C97.7098 16.0193 97.8618 14.7653 97.8618 13.524C97.8618 12.08 97.6591 10.6487 97.2538 9.22999C96.8738 7.81132 96.2911 6.51932 95.5058 5.35399C94.7458 4.18865 93.8084 3.26398 92.6938 2.57998C91.6044 1.87065 90.3378 1.51599 88.8938 1.51599Z" fill="url(#paint3_linear_2_276)"/>
<path d="M108.985 0.603987C109.619 0.603987 110.176 0.59132 110.657 0.565987C111.139 0.515319 111.582 0.477319 111.987 0.451986C112.139 0.933319 112.418 1.68065 112.823 2.69399C113.254 3.70732 113.748 4.91065 114.305 6.30399C114.888 7.67199 115.509 9.12865 116.167 10.674C116.826 12.2193 117.472 13.7647 118.105 15.31C118.739 16.83 119.321 18.2487 119.853 19.566C119.879 19.6167 119.929 19.642 120.005 19.642C120.081 19.642 120.132 19.5913 120.157 19.49C120.892 17.6153 121.551 15.9307 122.133 14.436C122.716 12.916 123.299 11.4087 123.881 9.91399C124.489 8.39399 125.148 6.72199 125.857 4.89799C126.085 4.31532 126.326 3.68198 126.579 2.99798C126.833 2.31399 127.048 1.71865 127.225 1.21198C127.403 0.705318 127.491 0.451986 127.491 0.451986C128.682 0.527987 129.657 0.565987 130.417 0.565987C131.076 0.565987 131.811 0.553319 132.621 0.527985C133.457 0.502652 134.103 0.477319 134.559 0.451986C134.585 0.502652 134.61 0.692652 134.635 1.02199C134.661 1.35132 134.673 1.51599 134.673 1.51599C134.496 1.51599 134.205 1.54132 133.799 1.59198C133.419 1.64265 133.052 1.71865 132.697 1.81999C132.343 1.92132 132.127 2.03532 132.051 2.16199C131.975 2.33932 131.925 2.56732 131.899 2.84599C131.874 3.12465 131.861 3.37799 131.861 3.60599C131.887 4.23932 131.912 5.20199 131.937 6.49399C131.963 7.78599 131.988 9.24265 132.013 10.864C132.064 12.46 132.102 14.0433 132.127 15.614C132.178 17.1847 132.216 18.578 132.241 19.794C132.267 20.5033 132.305 21.1747 132.355 21.808C132.406 22.4413 132.52 22.9733 132.697 23.404C132.773 23.5813 133.001 23.7207 133.381 23.822C133.761 23.898 134.141 23.9613 134.521 24.012C134.927 24.0373 135.18 24.05 135.281 24.05C135.383 24.2273 135.421 24.4427 135.395 24.696C135.395 24.924 135.383 25.0633 135.357 25.114C134.623 25.0633 133.901 25.0253 133.191 25C132.507 24.9493 131.76 24.924 130.949 24.924C130.088 24.924 129.341 24.9493 128.707 25C128.074 25.0253 127.327 25.0633 126.465 25.114C126.44 25.0633 126.415 24.9113 126.389 24.658C126.364 24.4047 126.389 24.202 126.465 24.05C126.617 24.05 126.858 24.0373 127.187 24.012C127.517 23.9613 127.846 23.9107 128.175 23.86C128.505 23.784 128.745 23.708 128.897 23.632C129.024 23.556 129.113 23.3407 129.163 22.986C129.214 22.6313 129.239 22.3273 129.239 22.074C129.239 21.7953 129.227 21.4407 129.201 21.01C129.176 20.554 129.163 20.1867 129.163 19.908C129.113 18.1093 129.062 16.3867 129.011 14.74C128.961 13.068 128.91 11.3707 128.859 9.64799C128.809 7.89999 128.745 6.02532 128.669 4.02398C128.669 3.94799 128.644 3.80865 128.593 3.60599C128.543 3.40332 128.454 3.30198 128.327 3.30198C128.277 3.30198 128.213 3.39065 128.137 3.56799C127.377 5.46799 126.668 7.22865 126.009 8.84999C125.376 10.4713 124.755 12.042 124.147 13.562C123.539 15.0567 122.919 16.5893 122.285 18.16C121.677 19.7053 121.019 21.3773 120.309 23.176C120.259 23.2773 120.145 23.48 119.967 23.784C119.79 24.088 119.6 24.3793 119.397 24.658C119.22 24.9113 119.055 25.0507 118.903 25.076C118.853 25.1013 118.764 25.0887 118.637 25.038C118.612 25.0127 118.587 25 118.561 25L109.517 3.33998C109.492 4.96132 109.454 6.63332 109.403 8.35599C109.353 10.0787 109.302 11.7507 109.251 13.372C109.226 14.9933 109.188 16.4627 109.137 17.78C109.112 19.072 109.087 20.1233 109.061 20.934C109.036 21.7193 109.023 22.15 109.023 22.226C109.023 22.4033 109.036 22.606 109.061 22.834C109.087 23.0367 109.125 23.214 109.175 23.366C109.251 23.5433 109.505 23.6827 109.935 23.784C110.391 23.8853 110.847 23.9613 111.303 24.012C111.759 24.0373 112.038 24.05 112.139 24.05C112.241 24.1513 112.279 24.3413 112.253 24.62C112.228 24.8987 112.203 25.0633 112.177 25.114C111.443 25.0633 110.809 25.0253 110.277 25C109.745 24.9493 109.074 24.924 108.263 24.924C107.402 24.924 106.68 24.9493 106.097 25C105.515 25.0253 104.793 25.0633 103.931 25.114C103.906 25.0633 103.881 24.9113 103.855 24.658C103.83 24.4047 103.855 24.202 103.931 24.05C104.083 24.05 104.375 24.0247 104.805 23.974C105.261 23.9233 105.705 23.8473 106.135 23.746C106.566 23.6447 106.832 23.518 106.933 23.366C107.111 23.1127 107.225 22.8467 107.275 22.568C107.326 22.264 107.364 21.9093 107.389 21.504C107.465 19.2747 107.529 17.134 107.579 15.082C107.655 13.03 107.706 11.1933 107.731 9.57199C107.782 7.92532 107.82 6.59532 107.845 5.58199C107.871 4.54332 107.883 3.93532 107.883 3.75799C107.883 3.47932 107.871 3.21332 107.845 2.95999C107.845 2.70665 107.807 2.47865 107.731 2.27598C107.681 2.12398 107.465 1.99732 107.085 1.89598C106.731 1.76932 106.351 1.68065 105.945 1.62999C105.565 1.55399 105.299 1.51599 105.147 1.51599C105.122 1.51599 105.109 1.35132 105.109 1.02199C105.109 0.667319 105.122 0.477319 105.147 0.451986C105.73 0.477319 106.199 0.502652 106.553 0.527985C106.908 0.553319 107.263 0.578654 107.617 0.603987C107.972 0.603987 108.428 0.603987 108.985 0.603987Z" fill="url(#paint4_linear_2_276)"/>
<path d="M140.098 19.832C140.098 19.832 140.212 19.528 140.44 18.92C140.694 18.2867 141.023 17.438 141.428 16.374C141.834 15.31 142.29 14.132 142.796 12.84C143.328 11.5227 143.86 10.18 144.392 8.81199C144.924 7.41865 145.431 6.08865 145.912 4.82199C146.419 3.55532 146.862 2.44065 147.242 1.47799C147.344 1.27532 147.559 1.04732 147.888 0.793985C148.243 0.540652 148.509 0.413986 148.686 0.413986C148.737 0.413986 148.762 0.426653 148.762 0.451986C148.788 0.451986 148.826 0.464652 148.876 0.489985L156.438 20.326C156.996 21.7953 157.312 22.606 157.388 22.758C157.515 23.0367 157.756 23.2773 158.11 23.48C158.49 23.6827 158.858 23.8347 159.212 23.936C159.592 24.012 159.833 24.05 159.934 24.05C160.036 24.1767 160.074 24.3793 160.048 24.658C160.023 24.9113 159.998 25.0633 159.972 25.114C159.238 25.0633 158.579 25.0253 157.996 25C157.414 24.9493 156.717 24.924 155.906 24.924C155.045 24.924 154.323 24.9493 153.74 25C153.183 25.0253 152.474 25.0633 151.612 25.114C151.511 25.0127 151.46 24.8353 151.46 24.582C151.486 24.3287 151.549 24.1513 151.65 24.05C151.878 24.05 152.233 24.012 152.714 23.936C153.196 23.8347 153.525 23.708 153.702 23.556C153.804 23.4547 153.854 23.2773 153.854 23.024C153.854 22.796 153.766 22.416 153.588 21.884C153.436 21.3267 153.234 20.706 152.98 20.022C152.727 19.338 152.474 18.6793 152.22 18.046C151.967 17.3873 151.752 16.8553 151.574 16.45C151.422 16.0193 151.346 15.804 151.346 15.804C151.346 15.804 151.321 15.7787 151.27 15.728C151.22 15.6773 151.169 15.652 151.118 15.652C150.738 15.6267 150.27 15.614 149.712 15.614C149.155 15.614 148.636 15.614 148.154 15.614C148.028 15.614 147.901 15.614 147.774 15.614C147.648 15.614 147.534 15.614 147.432 15.614C146.672 15.614 146.026 15.6267 145.494 15.652C144.962 15.652 144.278 15.6773 143.442 15.728C143.417 15.728 143.379 15.7533 143.328 15.804C143.278 15.8293 143.252 15.842 143.252 15.842C143.252 15.842 143.151 16.0953 142.948 16.602C142.771 17.1087 142.543 17.7167 142.264 18.426C142.011 19.11 141.783 19.756 141.58 20.364C141.352 20.9973 141.2 21.5293 141.124 21.96C141.074 22.3907 141.048 22.7327 141.048 22.986C141.048 23.2647 141.238 23.4927 141.618 23.67C142.024 23.822 142.429 23.9233 142.834 23.974C143.265 24.0247 143.531 24.05 143.632 24.05C143.683 24.1007 143.721 24.2653 143.746 24.544C143.772 24.7973 143.759 24.9873 143.708 25.114C143.227 25.0887 142.809 25.0633 142.454 25.038C142.125 25.0127 141.783 24.9873 141.428 24.962C141.099 24.9367 140.656 24.924 140.098 24.924C139.541 24.924 139.072 24.9367 138.692 24.962C138.312 24.9873 137.932 25.0127 137.552 25.038C137.172 25.0633 136.691 25.0887 136.108 25.114C136.058 25.0633 136.032 24.9113 136.032 24.658C136.032 24.3793 136.058 24.1767 136.108 24.05C136.336 24.05 136.716 23.9993 137.248 23.898C137.806 23.7713 138.173 23.5813 138.35 23.328C138.73 22.8467 139.047 22.3147 139.3 21.732C139.579 21.124 139.845 20.4907 140.098 19.832ZM147.356 4.89799L143.974 13.942C143.974 13.942 143.974 13.9673 143.974 14.018C144 14.0687 144.025 14.094 144.05 14.094C144.532 14.1193 145.102 14.1447 145.76 14.17C146.444 14.17 146.989 14.17 147.394 14.17C147.977 14.17 148.496 14.1573 148.952 14.132C149.434 14.1067 149.953 14.0813 150.51 14.056C150.561 14.056 150.586 14.0307 150.586 13.98C150.612 13.904 150.624 13.866 150.624 13.866L147.356 4.89799Z" fill="url(#paint5_linear_2_276)"/>
<path d="M167.85 1.78199C166.609 1.78199 165.557 2.21265 164.696 3.07399C163.835 3.93532 163.201 5.12599 162.796 6.64599C162.72 6.74732 162.581 6.79799 162.378 6.79799C162.201 6.79799 162.011 6.75999 161.808 6.68399C161.605 6.60799 161.479 6.54465 161.428 6.49399C161.757 5.63265 162.011 4.68265 162.188 3.64399C162.391 2.57999 162.543 1.42732 162.644 0.185984C163.049 0.236651 163.531 0.299986 164.088 0.375986C164.671 0.426652 165.203 0.451986 165.684 0.451986H172.904C173.943 0.451986 174.855 0.439319 175.64 0.413986C176.425 0.388653 177.198 0.350653 177.958 0.299986C178.743 0.24932 179.655 0.185986 180.694 0.109985C180.77 0.135318 180.897 0.236652 181.074 0.413986C181.251 0.591319 181.34 0.755985 181.34 0.907986C181.34 0.933319 181.112 1.28799 180.656 1.97199C180.2 2.63065 179.592 3.50465 178.832 4.59399C178.097 5.68332 177.261 6.89932 176.324 8.24199C175.412 9.58465 174.462 10.978 173.474 12.422C172.486 13.866 171.523 15.2593 170.586 16.602C169.649 17.9193 168.813 19.1227 168.078 20.212C167.343 21.276 166.748 22.1247 166.292 22.758C165.861 23.3913 165.646 23.708 165.646 23.708H175.336C176.147 23.708 176.818 23.594 177.35 23.366C177.907 23.1127 178.389 22.7833 178.794 22.378C179.326 21.846 179.731 21.238 180.01 20.554C180.314 19.87 180.567 19.262 180.77 18.73C180.795 18.6793 180.859 18.654 180.96 18.654C181.061 18.6287 181.163 18.616 181.264 18.616C181.467 18.616 181.644 18.654 181.796 18.73C181.973 18.806 182.1 18.882 182.176 18.958C181.897 19.9207 181.644 20.744 181.416 21.428C181.213 22.0867 181.023 22.6947 180.846 23.252C180.694 23.784 180.542 24.3667 180.39 25H161.808C161.605 25 161.415 24.9367 161.238 24.81C161.086 24.6833 161.048 24.5693 161.124 24.468L176.894 1.78199H167.85Z" fill="url(#paint6_linear_2_276)"/>
<defs>
<linearGradient id="paint0_linear_2_276" x1="194.278" y1="-26.5897" x2="-22.5478" y2="1.25213" gradientUnits="userSpaceOnUse">
<stop stop-color="#066499"/>
<stop offset="1" stop-color="#084F65"/>
</linearGradient>
<linearGradient id="paint1_linear_2_276" x1="194.278" y1="-26.5897" x2="-22.5478" y2="1.25213" gradientUnits="userSpaceOnUse">
<stop stop-color="#066499"/>
<stop offset="1" stop-color="#084F65"/>
</linearGradient>
<linearGradient id="paint2_linear_2_276" x1="194.278" y1="-26.5897" x2="-22.5478" y2="1.25213" gradientUnits="userSpaceOnUse">
<stop stop-color="#066499"/>
<stop offset="1" stop-color="#084F65"/>
</linearGradient>
<linearGradient id="paint3_linear_2_276" x1="194.278" y1="-26.5897" x2="-22.5478" y2="1.25213" gradientUnits="userSpaceOnUse">
<stop stop-color="#066499"/>
<stop offset="1" stop-color="#084F65"/>
</linearGradient>
<linearGradient id="paint4_linear_2_276" x1="194.278" y1="-26.5897" x2="-22.5478" y2="1.25213" gradientUnits="userSpaceOnUse">
<stop stop-color="#066499"/>
<stop offset="1" stop-color="#084F65"/>
</linearGradient>
<linearGradient id="paint5_linear_2_276" x1="194.278" y1="-26.5897" x2="-22.5478" y2="1.25213" gradientUnits="userSpaceOnUse">
<stop stop-color="#066499"/>
<stop offset="1" stop-color="#084F65"/>
</linearGradient>
<linearGradient id="paint6_linear_2_276" x1="194.278" y1="-26.5897" x2="-22.5478" y2="1.25213" gradientUnits="userSpaceOnUse">
<stop stop-color="#066499"/>
<stop offset="1" stop-color="#084F65"/>
</linearGradient>
</defs>
</svg>
